# xmcd
#
# Track frame offsets: 
#        150
#        28075
#        47571
#        70139
#        98240
#        119031
#        139746
#        164812
#        193326
#        205493
#        231233
#        250355
#        269309
#        296669
#        320113
#        344934
#        369573
#        389924
#
# Disc length: 5507 seconds
#
# Revision: 0
# Processed by: cddbd v1.5.2PL0 Copyright (c) Steve Scherf et al.
# Submitted via: ExactAudioCopy v1.0b3
#
DISCID=42158112
DTITLE=Various Artist - Que Huong, Mua Trang, Mua Thu
DYEAR=1972
DGENRE=
TTITLE0=Duy Khanh - Nguoi yeu va con chim sau nho
TTITLE1=Thanh Thuy - Tu tinh trong dem
TTITLE2=Khanh Ly - Xin cam on
TTITLE3=Huong Lan - Tieng chuong Linh Mu
TTITLE4=Thanh Lan - Ve mai nha xua
TTITLE5=Bang Chau - Yeu mai con yeu
TTITLE6=Duy Khanh - Ai nho chang ai
TTITLE7=Thai Thanh - Xa que huong
TTITLE8=hoa tau - Buc hoa dong que
TTITLE9=Hoang Oanh - Thon trang
TTITLE10=Thanh Lan - Trang sang trong lang
TTITLE11=Duy Khanh - Troi Hue vao thu chua em
TTITLE12=Huong Lan - Trang soi duyen lanh
TTITLE13=Khanh Ly - Thu biet phuong
TTITLE14=Thai Thanh - Chu Cuoi
TTITLE15=Giao Linh - Trang tan tren he pho
TTITLE16=Ha Thanh - Huong thu ve
TTITLE17=Duy Khanh - Trang thanh binh
EXTD=
EXTT0=
EXTT1=
EXTT2=
EXTT3=
EXTT4=
EXTT5=
EXTT6=
EXTT7=
EXTT8=
EXTT9=
EXTT10=
EXTT11=
EXTT12=
EXTT13=
EXTT14=
EXTT15=
EXTT16=
EXTT17=
PLAYORDER=
